<svg width="180" height="54" viewBox="0 0 180 54" fill="none" xmlns="http://www.w3.org/2000/svg">
<path d="M179 47.383C179 50.2087 176.709 52.4975 173.874 52.4975H6.13243C3.2995 52.4975 1 50.2087 1 47.383V6.59632C1 3.77198 3.2995 1.47512 6.13243 1.47512H173.873C176.709 1.47512 178.999 3.77198 178.999 6.59632L179 47.383Z" fill="black"/>
<path d="M173.333 1.5368C176.42 1.5368 178.932 4.03386 178.932 7.10259V46.8701C178.932 49.9388 176.42 52.4359 173.333 52.4359H6.66667C3.58 52.4359 1.06833 49.9388 1.06833 46.8701V7.10259C1.06833 4.03386 3.58 1.5368 6.66667 1.5368H173.333ZM173.333 0.474674H6.66667C3.00167 0.474674 0 3.45889 0 7.10259V46.8701C0 50.5138 3.00167 53.498 6.66667 53.498H173.333C176.998 53.498 180 50.5138 180 46.8701V7.10259C180 3.45889 176.998 0.474674 173.333 0.474674Z" fill="#A6A6A6"/>
<path d="M40.1707 26.7C40.132 22.4276 43.6894 20.3491 43.852 20.2524C41.8374 17.3321 38.7147 16.9331 37.6174 16.9013C34.9947 16.6269 32.4507 18.4615 31.1147 18.4615C29.752 18.4615 27.6947 16.9278 25.4774 16.9729C22.624 17.0166 19.9547 18.659 18.4907 21.2094C15.4694 26.4097 17.7227 34.0517 20.6174 38.2551C22.0654 40.3137 23.7574 42.6123 25.972 42.5314C28.1387 42.4426 28.948 41.1581 31.5627 41.1581C34.1534 41.1581 34.9134 42.5314 37.172 42.4797C39.4974 42.4426 40.9614 40.4118 42.3587 38.3346C44.032 35.9751 44.704 33.6513 44.7307 33.532C44.676 33.5135 40.2147 31.8207 40.1707 26.7Z" fill="white"/>
<path d="M35.904 14.1361C37.0694 12.6873 37.8667 10.7161 37.6454 8.71581C35.9587 8.79004 33.8494 9.87569 32.6347 11.2927C31.56 12.5414 30.6 14.5881 30.848 16.5129C32.7427 16.6534 34.688 15.5624 35.904 14.1361Z" fill="white"/>
<path d="M71.5266 42.2358H68.4986L66.84 37.0541H61.0746L59.4946 42.2358H56.5466L62.2586 24.5949H65.7866L71.5266 42.2358ZM66.34 34.8801L64.84 30.2737C64.6813 29.8032 64.384 28.695 63.9453 26.9505H63.892C63.7173 27.7008 63.436 28.809 63.0493 30.2737L61.576 34.8801H66.34V34.8801Z" fill="white"/>
<path d="M86.216 35.7193C86.216 37.8826 85.628 39.5926 84.452 40.848C83.3987 41.9654 82.0907 42.5235 80.5293 42.5235C78.844 42.5235 77.6333 41.9217 76.896 40.718H76.8427V47.4189H74V33.7031C74 32.343 73.964 30.9472 73.8947 29.5155H76.3947L76.5533 31.5318H76.6067C77.5547 30.0126 78.9933 29.2544 80.924 29.2544C82.4333 29.2544 83.6933 29.8469 84.7013 31.0333C85.712 32.2211 86.216 33.7826 86.216 35.7193ZM83.32 35.8227C83.32 34.5846 83.04 33.5639 82.4773 32.7606C81.8627 31.9228 81.0373 31.5039 80.0027 31.5039C79.3013 31.5039 78.664 31.7372 78.0947 32.1972C77.524 32.6612 77.1506 33.2669 76.976 34.0172C76.888 34.3672 76.844 34.6535 76.844 34.8789V36.9998C76.844 37.925 77.1293 38.7058 77.7 39.3434C78.2707 39.981 79.012 40.2992 79.924 40.2992C80.9947 40.2992 81.828 39.8882 82.424 39.069C83.0213 38.2485 83.32 37.1668 83.32 35.8227Z" fill="white"/>
<path d="M100.932 35.7193C100.932 37.8826 100.344 39.5926 99.1666 40.848C98.1146 41.9654 96.8066 42.5235 95.2453 42.5235C93.5599 42.5235 92.3493 41.9217 91.6133 40.718H91.5599V47.4189H88.7173V33.7031C88.7173 32.343 88.6813 30.9472 88.6119 29.5155H91.1119L91.2706 31.5318H91.3239C92.2706 30.0126 93.7093 29.2544 95.6413 29.2544C97.1493 29.2544 98.4093 29.8469 99.4199 31.0333C100.427 32.2211 100.932 33.7826 100.932 35.7193ZM98.0359 35.8227C98.0359 34.5846 97.7546 33.5639 97.1919 32.7606C96.5773 31.9228 95.7546 31.5039 94.7186 31.5039C94.0159 31.5039 93.3799 31.7372 92.8093 32.1972C92.2386 32.6612 91.8666 33.2669 91.6919 34.0172C91.6053 34.3672 91.5599 34.6535 91.5599 34.8789V36.9998C91.5599 37.925 91.8453 38.7058 92.4133 39.3434C92.9839 39.9797 93.7253 40.2992 94.6399 40.2992C95.7106 40.2992 96.5439 39.8882 97.1399 39.069C97.7373 38.2485 98.0359 37.1668 98.0359 35.8227Z" fill="white"/>
<path d="M117.385 37.2888C117.385 38.7893 116.861 40.0102 115.809 40.9527C114.653 41.9826 113.044 42.497 110.976 42.497C109.067 42.497 107.536 42.1311 106.377 41.3981L107.036 39.0425C108.284 39.7928 109.653 40.1692 111.145 40.1692C112.216 40.1692 113.049 39.928 113.648 39.4481C114.244 38.9683 114.541 38.324 114.541 37.5207C114.541 36.8049 114.296 36.2018 113.804 35.7126C113.315 35.2235 112.497 34.7688 111.356 34.3486C108.249 33.1967 106.697 31.5092 106.697 29.2902C106.697 27.84 107.241 26.651 108.331 25.7257C109.416 24.7991 110.864 24.3365 112.675 24.3365C114.289 24.3365 115.631 24.6162 116.701 25.1743L115.991 27.4781C114.991 26.9373 113.86 26.6669 112.595 26.6669C111.595 26.6669 110.813 26.9121 110.253 27.3999C109.78 27.836 109.543 28.3676 109.543 28.9972C109.543 29.6945 109.813 30.2711 110.357 30.7245C110.831 31.1434 111.691 31.5967 112.939 32.0858C114.465 32.6969 115.587 33.4114 116.308 34.2306C117.027 35.0472 117.385 36.0692 117.385 37.2888Z" fill="white"/>
<path d="M126.784 31.6365H123.651V37.8123C123.651 39.3832 124.203 40.1679 125.309 40.1679C125.817 40.1679 126.239 40.1242 126.572 40.0367L126.651 42.1828C126.091 42.3909 125.353 42.4956 124.44 42.4956C123.317 42.4956 122.44 42.155 121.807 41.4749C121.176 40.7936 120.859 39.6509 120.859 38.0456V31.6338H118.992V29.5129H120.859V27.1838L123.651 26.3461V29.5129H126.784V31.6365Z" fill="white"/>
<path d="M140.921 35.771C140.921 37.7262 140.359 39.3315 139.236 40.5868C138.059 41.8792 136.496 42.5235 134.548 42.5235C132.671 42.5235 131.176 41.9044 130.061 40.6663C128.947 39.4282 128.389 37.8654 128.389 35.9817C128.389 34.0106 128.963 32.396 130.113 31.1407C131.261 29.884 132.811 29.2557 134.759 29.2557C136.636 29.2557 138.147 29.8748 139.287 31.1142C140.377 32.3165 140.921 33.8687 140.921 35.771ZM137.972 35.8624C137.972 34.6893 137.72 33.6832 137.209 32.8441C136.613 31.8287 135.761 31.3223 134.657 31.3223C133.515 31.3223 132.647 31.83 132.051 32.8441C131.54 33.6845 131.288 34.7065 131.288 35.9154C131.288 37.0886 131.54 38.0947 132.051 38.9325C132.665 39.9479 133.524 40.4542 134.632 40.4542C135.717 40.4542 136.569 39.9373 137.184 38.906C137.708 38.051 137.972 37.0342 137.972 35.8624Z" fill="white"/>
<path d="M150.161 32.001C149.88 31.9493 149.58 31.9228 149.265 31.9228C148.265 31.9228 147.492 32.2979 146.948 33.0495C146.475 33.7123 146.237 34.5501 146.237 35.5615V42.2358H143.396L143.423 33.5215C143.423 32.0554 143.387 30.7205 143.316 29.5169H145.792L145.896 31.9506H145.975C146.275 31.1142 146.748 30.4408 147.396 29.9358C148.029 29.4811 148.713 29.2544 149.451 29.2544C149.713 29.2544 149.951 29.273 150.161 29.3061V32.001Z" fill="white"/>
<path d="M162.875 35.2739C162.875 35.7802 162.841 36.2071 162.771 36.5557H154.243C154.276 37.8123 154.688 38.7734 155.48 39.4362C156.199 40.0287 157.128 40.3257 158.269 40.3257C159.532 40.3257 160.684 40.1255 161.72 39.7238L162.165 41.6857C160.955 42.2106 159.525 42.4718 157.876 42.4718C155.892 42.4718 154.335 41.8912 153.201 40.7313C152.071 39.5714 151.504 38.0138 151.504 36.0599C151.504 34.1418 152.031 32.5445 153.085 31.2706C154.189 29.9106 155.681 29.2305 157.559 29.2305C159.403 29.2305 160.799 29.9106 161.747 31.2706C162.497 32.3509 162.875 33.6871 162.875 35.2739ZM160.164 34.5408C160.183 33.703 159.997 32.9793 159.612 32.3682C159.12 31.5821 158.364 31.1897 157.347 31.1897C156.417 31.1897 155.661 31.5728 155.084 32.3417C154.611 32.9528 154.329 33.6858 154.243 34.5395H160.164V34.5408Z" fill="white"/>
<path d="M65.4 13.7424C65.4 15.3027 64.9293 16.4771 63.9893 17.2658C63.1186 17.9936 61.8813 18.3581 60.2786 18.3581C59.484 18.3581 58.804 18.3237 58.2346 18.2547V9.72991C58.9773 9.61061 59.7773 9.54963 60.6413 9.54963C62.168 9.54963 63.3186 9.8797 64.0946 10.5398C64.964 11.2861 65.4 12.3532 65.4 13.7424ZM63.9266 13.7809C63.9266 12.7695 63.6573 11.994 63.1186 11.4532C62.58 10.9137 61.7933 10.6432 60.7573 10.6432C60.3173 10.6432 59.9426 10.6724 59.632 10.7334V17.2141C59.804 17.2407 60.1186 17.2526 60.576 17.2526C61.6453 17.2526 62.4706 16.957 63.052 16.3658C63.6333 15.7746 63.9266 14.9129 63.9266 13.7809Z" fill="white"/>
<path d="M73.2119 15.1051C73.2119 16.0662 72.9359 16.8536 72.3839 17.4713C71.8052 18.1063 71.0386 18.4231 70.0812 18.4231C69.1586 18.4231 68.4239 18.1195 67.8759 17.5097C67.3292 16.9013 67.0559 16.1338 67.0559 15.2085C67.0559 14.2409 67.3372 13.4468 67.9026 12.8304C68.4679 12.214 69.2279 11.9052 70.1852 11.9052C71.1079 11.9052 71.8492 12.2087 72.4106 12.8172C72.9439 13.4084 73.2119 14.1719 73.2119 15.1051ZM71.7626 15.1502C71.7626 14.5736 71.6372 14.0791 71.3879 13.6669C71.0946 13.1685 70.6772 12.9193 70.1346 12.9193C69.5732 12.9193 69.1466 13.1685 68.8532 13.6669C68.6026 14.0791 68.4786 14.5815 68.4786 15.1754C68.4786 15.752 68.6039 16.2465 68.8532 16.6587C69.1559 17.1571 69.5772 17.4064 70.1212 17.4064C70.6546 17.4064 71.0732 17.1532 71.3746 16.6455C71.6332 16.2253 71.7626 15.7268 71.7626 15.1502Z" fill="white"/>
<path d="M83.6866 12.0324L81.72 18.2812H80.44L79.6253 15.5678C79.4186 14.8904 79.2506 14.217 79.12 13.5489H79.0946C78.9733 14.2356 78.8053 14.9076 78.5893 15.5678L77.724 18.2812H76.4293L74.58 12.0324H76.016L76.7266 15.0031C76.8986 15.7056 77.04 16.3751 77.1533 17.0087H77.1786C77.2826 16.4864 77.4546 15.821 77.6973 15.0163L78.5893 12.0338H79.728L80.5826 14.9527C80.7893 15.6645 80.9573 16.3499 81.0866 17.01H81.1253C81.22 16.3671 81.3626 15.6818 81.552 14.9527L82.3146 12.0338H83.6866V12.0324Z" fill="white"/>
<path d="M90.9306 18.2812H89.5333V14.7022C89.5333 13.5993 89.1119 13.0478 88.2666 13.0478C87.8519 13.0478 87.5173 13.199 87.2573 13.5025C86.9999 13.8061 86.8693 14.164 86.8693 14.5736V18.2799H85.4719V13.818C85.4719 13.2692 85.4546 12.674 85.4213 12.0298H86.6493L86.7146 13.0068H86.7533C86.9159 12.7032 87.1586 12.4527 87.4773 12.2525C87.8559 12.0192 88.2799 11.9012 88.7439 11.9012C89.3306 11.9012 89.8186 12.0895 90.2066 12.4672C90.6892 12.9299 90.9306 13.6205 90.9306 14.5378V18.2812V18.2812Z" fill="white"/>
<path d="M94.7839 18.2812H93.3879V9.1652H94.7839V18.2812Z" fill="white"/>
<path d="M103.011 15.1051C103.011 16.0662 102.735 16.8536 102.183 17.4713C101.604 18.1063 100.836 18.4231 99.88 18.4231C98.956 18.4231 98.2213 18.1195 97.6746 17.5097C97.1279 16.9013 96.8546 16.1338 96.8546 15.2085C96.8546 14.2409 97.136 13.4468 97.7013 12.8304C98.2666 12.214 99.0266 11.9052 99.9826 11.9052C100.907 11.9052 101.647 12.2087 102.209 12.8172C102.743 13.4084 103.011 14.1719 103.011 15.1051ZM101.56 15.1502C101.56 14.5736 101.435 14.0791 101.185 13.6669C100.893 13.1685 100.475 12.9193 99.9333 12.9193C99.3706 12.9193 98.9439 13.1685 98.6519 13.6669C98.4013 14.0791 98.2773 14.5815 98.2773 15.1754C98.2773 15.752 98.4026 16.2465 98.6519 16.6587C98.9546 17.1571 99.376 17.4064 99.92 17.4064C100.453 17.4064 100.871 17.1532 101.172 16.6455C101.432 16.2253 101.56 15.7268 101.56 15.1502Z" fill="white"/>
<path d="M109.773 18.2812H108.519L108.415 17.5614H108.376C107.947 18.1354 107.335 18.4231 106.54 18.4231C105.947 18.4231 105.467 18.2335 105.105 17.8571C104.777 17.5151 104.613 17.0895 104.613 16.5845C104.613 15.821 104.933 15.239 105.577 14.836C106.22 14.4331 107.124 14.2356 108.288 14.2448V14.1282C108.288 13.305 107.853 12.8941 106.983 12.8941C106.363 12.8941 105.816 13.0492 105.344 13.3567L105.06 12.4447C105.644 12.0855 106.365 11.9052 107.216 11.9052C108.859 11.9052 109.683 12.7668 109.683 14.4901V16.7913C109.683 17.4156 109.713 17.9127 109.773 18.2812ZM108.323 16.1338V15.1701C106.781 15.1436 106.011 15.5638 106.011 16.4294C106.011 16.7555 106.099 16.9994 106.279 17.1624C106.459 17.3255 106.688 17.4064 106.961 17.4064C107.268 17.4064 107.555 17.3096 107.816 17.1174C108.079 16.9238 108.24 16.6786 108.3 16.3777C108.315 16.3101 108.323 16.2279 108.323 16.1338Z" fill="white"/>
<path d="M117.713 18.2812H116.473L116.408 17.2778H116.369C115.973 18.0413 115.299 18.4231 114.351 18.4231C113.593 18.4231 112.963 18.1275 112.463 17.5363C111.963 16.945 111.713 16.1775 111.713 15.235C111.713 14.2236 111.984 13.4044 112.528 12.7787C113.055 12.1955 113.7 11.9039 114.468 11.9039C115.312 11.9039 115.903 12.1862 116.239 12.7522H116.265V9.1652H117.664V16.5977C117.664 17.2062 117.68 17.7669 117.713 18.2812ZM116.265 15.646V14.6041C116.265 14.4238 116.252 14.278 116.227 14.1666C116.148 13.8326 115.979 13.5516 115.721 13.3249C115.461 13.0982 115.148 12.9842 114.787 12.9842C114.265 12.9842 113.857 13.1897 113.557 13.6019C113.26 14.0142 113.109 14.5404 113.109 15.1833C113.109 15.8011 113.252 16.3021 113.539 16.6879C113.841 17.0988 114.249 17.3043 114.76 17.3043C115.219 17.3043 115.585 17.1333 115.864 16.79C116.133 16.4731 116.265 16.0914 116.265 15.646Z" fill="white"/>
<path d="M129.664 15.1051C129.664 16.0662 129.388 16.8536 128.836 17.4713C128.257 18.1063 127.492 18.4231 126.533 18.4231C125.612 18.4231 124.877 18.1195 124.328 17.5097C123.781 16.9013 123.508 16.1338 123.508 15.2085C123.508 14.2409 123.789 13.4468 124.355 12.8304C124.92 12.214 125.68 11.9052 126.639 11.9052C127.56 11.9052 128.303 12.2087 128.863 12.8172C129.396 13.4084 129.664 14.1719 129.664 15.1051ZM128.216 15.1502C128.216 14.5736 128.091 14.0791 127.841 13.6669C127.547 13.1685 127.131 12.9193 126.587 12.9193C126.027 12.9193 125.6 13.1685 125.305 13.6669C125.055 14.0791 124.931 14.5815 124.931 15.1754C124.931 15.752 125.056 16.2465 125.305 16.6587C125.608 17.1571 126.029 17.4064 126.573 17.4064C127.107 17.4064 127.527 17.1532 127.828 16.6455C128.085 16.2253 128.216 15.7268 128.216 15.1502Z" fill="white"/>
<path d="M137.177 18.2812H135.781V14.7022C135.781 13.5993 135.36 13.0478 134.513 13.0478C134.099 13.0478 133.764 13.199 133.505 13.5025C133.247 13.8061 133.117 14.164 133.117 14.5736V18.2799H131.719V13.818C131.719 13.2692 131.703 12.674 131.669 12.0298H132.896L132.961 13.0068H133C133.164 12.7032 133.407 12.4527 133.724 12.2525C134.104 12.0192 134.527 11.9012 134.992 11.9012C135.577 11.9012 136.065 12.0895 136.453 12.4672C136.937 12.9299 137.177 13.6205 137.177 14.5378V18.2812V18.2812Z" fill="white"/>
<path d="M146.581 13.073H145.043V16.1086C145.043 16.8801 145.316 17.2658 145.857 17.2658C146.108 17.2658 146.316 17.2446 146.48 17.2009L146.516 18.2547C146.24 18.3581 145.877 18.4098 145.431 18.4098C144.879 18.4098 144.449 18.2428 144.139 17.9088C143.827 17.5747 143.672 17.0127 143.672 16.2239V13.073H142.753V12.0324H143.672V10.8871L145.041 10.4762V12.0311H146.58V13.073H146.581Z" fill="white"/>
<path d="M153.979 18.2812H152.58V14.7287C152.58 13.6086 152.159 13.0478 151.315 13.0478C150.667 13.0478 150.224 13.3726 149.981 14.0221C149.94 14.1587 149.916 14.3257 149.916 14.5219V18.2799H148.52V9.1652H149.916V12.9312H149.943C150.383 12.2459 151.013 11.9039 151.831 11.9039C152.409 11.9039 152.888 12.0921 153.268 12.4699C153.741 12.9405 153.979 13.6404 153.979 14.5656V18.2812V18.2812Z" fill="white"/>
<path d="M161.609 14.8612C161.609 15.1104 161.591 15.3199 161.557 15.4909H157.367C157.385 16.1086 157.585 16.5792 157.973 16.9053C158.328 17.1969 158.785 17.3427 159.345 17.3427C159.965 17.3427 160.531 17.2446 161.04 17.0471L161.259 18.0121C160.663 18.2693 159.961 18.3979 159.149 18.3979C158.176 18.3979 157.409 18.1129 156.855 17.5429C156.297 16.9729 156.021 16.208 156.021 15.2483C156.021 14.3058 156.279 13.5211 156.797 12.8954C157.339 12.2273 158.071 11.8932 158.995 11.8932C159.899 11.8932 160.585 12.2273 161.049 12.8954C161.424 13.4256 161.609 14.0818 161.609 14.8612ZM160.276 14.502C160.287 14.0897 160.195 13.7345 160.005 13.4349C159.763 13.0492 159.393 12.8556 158.893 12.8556C158.437 12.8556 158.065 13.0439 157.781 13.4216C157.549 13.7226 157.412 14.0818 157.367 14.502H160.276Z" fill="white"/>
</svg>
