<svg width="144" height="43" viewBox="0 0 144 43" fill="none" xmlns="http://www.w3.org/2000/svg">
<path d="M138.476 42.498H5.326C2.39803 42.498 0 40.1106 0 37.1957V5.38171C0 2.46675 2.39803 0.0793755 5.326 0.0793755H138.476C141.404 0.0793755 143.802 2.46675 143.802 5.38171V37.1957C143.802 40.1106 141.404 42.498 138.476 42.498Z" fill="black"/>
<path d="M138.476 0.929072C140.942 0.929072 142.949 2.92673 142.949 5.38171V37.1957C142.949 39.6507 140.942 41.6483 138.476 41.6483H5.326C2.86006 41.6483 0.853492 39.6507 0.853492 37.1957V5.38171C0.853492 2.92673 2.86006 0.929072 5.326 0.929072H138.476ZM138.476 0.0793755H5.326C2.39803 0.0793755 0 2.46675 0 5.38171V37.1957C0 40.1106 2.39803 42.498 5.326 42.498H138.476C141.404 42.498 143.802 40.1106 143.802 37.1957V5.38171C143.802 2.46675 141.404 0.0793755 138.476 0.0793755Z" fill="#A6A6A6"/>
<path d="M50.5091 10.9425C50.5091 11.828 50.2428 12.5372 49.7182 13.0661C49.1151 13.6931 48.3295 14.0086 47.3668 14.0086C46.4467 14.0086 45.6612 13.6878 45.0167 13.0555C44.3709 12.4139 44.0487 11.6265 44.0487 10.684C44.0487 9.74154 44.3709 8.95415 45.0167 8.31787C45.6612 7.68026 46.4467 7.35947 47.3668 7.35947C47.8248 7.35947 48.2616 7.45359 48.6783 7.62856C49.0938 7.80487 49.432 8.04347 49.677 8.33775L49.1204 8.89715C48.693 8.39475 48.1111 8.14687 47.3668 8.14687C46.6957 8.14687 46.1139 8.38017 45.6199 8.85075C45.1312 9.32266 44.8862 9.93375 44.8862 10.684C44.8862 11.4343 45.1312 12.0507 45.6199 12.5226C46.1139 12.9879 46.6957 13.2265 47.3668 13.2265C48.0792 13.2265 48.6783 12.9879 49.151 12.5173C49.4626 12.2058 49.6397 11.7763 49.6863 11.2275H47.3668V10.4613H50.4612C50.4985 10.627 50.5091 10.7874 50.5091 10.9425V10.9425Z" fill="white" stroke="white" stroke-width="0.16" stroke-miterlimit="10"/>
<path d="M55.4184 8.28605H52.5117V10.3009H55.1321V11.0671H52.5117V13.082H55.4184V13.8628H51.6888V7.50528H55.4184V8.28605Z" fill="white" stroke="white" stroke-width="0.16" stroke-miterlimit="10"/>
<path d="M58.8828 13.8628H58.06V8.28605H56.2771V7.50528H60.6671V8.28605H58.8828V13.8628V13.8628Z" fill="white" stroke="white" stroke-width="0.16" stroke-miterlimit="10"/>
<path d="M63.8441 13.8628V7.50528H64.6657V13.8628H63.8441Z" fill="white" stroke="white" stroke-width="0.16" stroke-miterlimit="10"/>
<path d="M68.3073 13.8628H67.4911V8.28605H65.7015V7.50528H70.0968V8.28605H68.3073V13.8628Z" fill="white" stroke="white" stroke-width="0.16" stroke-miterlimit="10"/>
<path d="M78.408 13.0449C77.7782 13.6878 76.998 14.0086 76.0673 14.0086C75.1312 14.0086 74.351 13.6878 73.7212 13.0449C73.0927 12.4033 72.7798 11.6159 72.7798 10.684C72.7798 9.75215 73.0927 8.96475 73.7212 8.32317C74.351 7.68026 75.1312 7.35947 76.0673 7.35947C76.9927 7.35947 77.7729 7.68026 78.4027 8.32847C79.0365 8.97536 79.3494 9.75745 79.3494 10.684C79.3494 11.6159 79.0365 12.4033 78.408 13.0449ZM74.3297 12.512C74.8037 12.9879 75.3802 13.2265 76.0673 13.2265C76.749 13.2265 77.3309 12.9879 77.7995 12.512C78.2722 12.0361 78.5119 11.425 78.5119 10.684C78.5119 9.94303 78.2722 9.33194 77.7995 8.85605C77.3309 8.38017 76.749 8.14156 76.0673 8.14156C75.3802 8.14156 74.8037 8.38017 74.3297 8.85605C73.857 9.33194 73.6173 9.94303 73.6173 10.684C73.6173 11.425 73.857 12.0361 74.3297 12.512V12.512Z" fill="white" stroke="white" stroke-width="0.16" stroke-miterlimit="10"/>
<path d="M80.5038 13.8628V7.50528H81.5024L84.6075 12.4497H84.6434L84.6075 11.2275V7.50528H85.429V13.8628H84.5715L81.32 8.67444H81.284L81.32 9.90193V13.8628H80.5038V13.8628Z" fill="white" stroke="white" stroke-width="0.16" stroke-miterlimit="10"/>
<path d="M72.5774 23.1472C70.0755 23.1472 68.0317 25.0428 68.0317 27.6581C68.0317 30.2523 70.0755 32.1678 72.5774 32.1678C75.0846 32.1678 77.1285 30.2523 77.1285 27.6581C77.1285 25.0428 75.0846 23.1472 72.5774 23.1472ZM72.5774 30.3915C71.2046 30.3915 70.0236 29.2634 70.0236 27.6581C70.0236 26.0317 71.2046 24.9235 72.5774 24.9235C73.9502 24.9235 75.1366 26.0317 75.1366 27.6581C75.1366 29.2634 73.9502 30.3915 72.5774 30.3915V30.3915ZM62.6591 23.1472C60.1519 23.1472 58.1133 25.0428 58.1133 27.6581C58.1133 30.2523 60.1519 32.1678 62.6591 32.1678C65.165 32.1678 67.2048 30.2523 67.2048 27.6581C67.2048 25.0428 65.165 23.1472 62.6591 23.1472ZM62.6591 30.3915C61.285 30.3915 60.0999 29.2634 60.0999 27.6581C60.0999 26.0317 61.285 24.9235 62.6591 24.9235C64.0318 24.9235 65.2129 26.0317 65.2129 27.6581C65.2129 29.2634 64.0318 30.3915 62.6591 30.3915ZM50.8567 24.5298V26.4466H55.4543C55.3198 27.5176 54.9603 28.305 54.4091 28.8538C53.738 29.5166 52.6928 30.2523 50.8567 30.2523C48.0272 30.2523 45.8116 27.9789 45.8116 25.1621C45.8116 22.3452 48.0272 20.0718 50.8567 20.0718C52.3865 20.0718 53.4997 20.667 54.3212 21.4385L55.678 20.0877C54.5289 18.9955 53.0004 18.1564 50.8567 18.1564C46.9767 18.1564 43.7158 21.2993 43.7158 25.1621C43.7158 29.0248 46.9767 32.1678 50.8567 32.1678C52.9538 32.1678 54.5289 31.4838 55.7672 30.2006C57.0361 28.9373 57.4316 27.161 57.4316 25.7268C57.4316 25.2814 57.3943 24.8718 57.3277 24.5298H50.8567ZM99.1182 26.0157C98.7441 25.007 97.5896 23.1472 95.2382 23.1472C92.9081 23.1472 90.9681 24.9752 90.9681 27.6581C90.9681 30.1847 92.8881 32.1678 95.4619 32.1678C97.543 32.1678 98.7441 30.9045 99.238 30.1688L97.6935 29.1441C97.1782 29.8944 96.4765 30.3915 95.4619 30.3915C94.454 30.3915 93.731 29.9315 93.2676 29.0248L99.3273 26.5287L99.1182 26.0157V26.0157ZM92.9401 27.5176C92.8881 25.7785 94.2969 24.8877 95.3061 24.8877C96.097 24.8877 96.7681 25.2814 96.9918 25.8447L92.9401 27.5176V27.5176ZM88.0148 31.8934H90.0068V18.6376H88.0148V31.8934ZM84.7527 24.152H84.6861C84.2387 23.6244 83.3852 23.1472 82.304 23.1472C80.0352 23.1472 77.9607 25.1303 77.9607 27.6727C77.9607 30.2006 80.0352 32.1678 82.304 32.1678C83.3852 32.1678 84.2387 31.6866 84.6861 31.1431H84.7527V31.79C84.7527 33.5146 83.8273 34.4411 82.3346 34.4411C81.1177 34.4411 80.3627 33.5663 80.0511 32.8306L78.3188 33.5504C78.8182 34.746 80.1403 36.2174 82.3346 36.2174C84.6701 36.2174 86.6407 34.8494 86.6407 31.5209V23.4216H84.7527V24.152V24.152ZM82.4745 30.3915C81.1017 30.3915 79.9526 29.2475 79.9526 27.6727C79.9526 26.0833 81.1017 24.9235 82.4745 24.9235C83.8273 24.9235 84.8938 26.0833 84.8938 27.6727C84.8938 29.2475 83.8273 30.3915 82.4745 30.3915V30.3915ZM108.444 18.6376H103.68V31.8934H105.667V26.8707H108.444C110.65 26.8707 112.814 25.2814 112.814 22.7535C112.814 20.2269 110.645 18.6376 108.444 18.6376V18.6376ZM108.496 25.0269H105.667V20.4814H108.496C109.979 20.4814 110.826 21.7076 110.826 22.7535C110.826 23.7795 109.979 25.0269 108.496 25.0269ZM120.776 23.122C119.341 23.122 117.848 23.753 117.235 25.1515L118.998 25.8872C119.377 25.1515 120.075 24.9129 120.812 24.9129C121.843 24.9129 122.888 25.5293 122.904 26.6176V26.7567C122.545 26.55 121.775 26.2437 120.828 26.2437C118.93 26.2437 116.995 27.2843 116.995 29.2263C116.995 31.0026 118.55 32.1466 120.298 32.1466C121.635 32.1466 122.373 31.5461 122.836 30.8475H122.904V31.8722H124.823V26.7872C124.823 24.437 123.06 23.122 120.776 23.122ZM120.537 30.3862C119.887 30.3862 118.982 30.0654 118.982 29.2634C118.982 28.2374 120.111 27.8437 121.088 27.8437C121.963 27.8437 122.373 28.0359 122.904 28.2891C122.748 29.5166 121.687 30.3862 120.537 30.3862V30.3862ZM131.813 23.4123L129.53 29.1587H129.462L127.101 23.4123H124.959L128.506 31.4427L126.482 35.9112H128.558L134.023 23.4123H131.813V23.4123ZM113.906 31.8934H115.898V18.6376H113.906V31.8934Z" fill="white"/>
<path d="M11.1153 8.07395C10.8024 8.40004 10.6213 8.90774 10.6213 9.56523V33.0174C10.6213 33.6749 10.8024 34.1826 11.1153 34.5087L11.1926 34.5803L24.393 21.4438V21.1336L11.1926 7.99707L11.1153 8.07395Z" fill="url(#paint0_linear_1_83)"/>
<path d="M28.7884 25.8248L24.3931 21.4438V21.1336L28.7937 16.7525L28.8922 16.8095L34.1037 19.7616C35.591 20.5994 35.591 21.978 34.1037 22.8211L28.8922 25.7678L28.7884 25.8248V25.8248Z" fill="url(#paint1_linear_1_83)"/>
<path d="M28.8922 25.7678L24.3931 21.2887L11.1154 34.5087C11.6093 35.0257 12.4149 35.088 13.331 34.571L28.8922 25.7678" fill="url(#paint2_linear_1_83)"/>
<path d="M28.8922 16.8096L13.331 8.00636C12.4149 7.49469 11.6093 7.55699 11.1154 8.07397L24.3931 21.2887L28.8922 16.8096Z" fill="url(#paint3_linear_1_83)"/>
<defs>
<linearGradient id="paint0_linear_1_83" x1="23.221" y1="33.2617" x2="5.42401" y2="15.3852" gradientUnits="userSpaceOnUse">
<stop stop-color="#00A0FF"/>
<stop offset="0.0066" stop-color="#00A1FF"/>
<stop offset="0.2601" stop-color="#00BEFF"/>
<stop offset="0.5122" stop-color="#00D2FF"/>
<stop offset="0.7604" stop-color="#00DFFF"/>
<stop offset="1" stop-color="#00E3FF"/>
</linearGradient>
<linearGradient id="paint1_linear_1_83" x1="36.0404" y1="21.2872" x2="10.2658" y2="21.2872" gradientUnits="userSpaceOnUse">
<stop stop-color="#FFE000"/>
<stop offset="0.4087" stop-color="#FFBD00"/>
<stop offset="0.7754" stop-color="#FFA500"/>
<stop offset="1" stop-color="#FF9C00"/>
</linearGradient>
<linearGradient id="paint2_linear_1_83" x1="26.4457" y1="18.8538" x2="2.31156" y2="-5.38815" gradientUnits="userSpaceOnUse">
<stop stop-color="#FF3A44"/>
<stop offset="1" stop-color="#C31162"/>
</linearGradient>
<linearGradient id="paint3_linear_1_83" x1="7.77308" y1="42.3112" x2="18.5501" y2="31.4862" gradientUnits="userSpaceOnUse">
<stop stop-color="#32A071"/>
<stop offset="0.0685" stop-color="#2DA771"/>
<stop offset="0.4762" stop-color="#15CF74"/>
<stop offset="0.8009" stop-color="#06E775"/>
<stop offset="1" stop-color="#00F076"/>
</linearGradient>
</defs>
</svg>
