<svg width="1146" height="486" viewBox="0 0 1146 486" fill="none" xmlns="http://www.w3.org/2000/svg">
<line x1="0.500244" y1="4.48725e-09" x2="0.500141" y2="486" stroke="#787878" stroke-dasharray="16 24"/>
<line x1="95.5" y1="4.48725e-09" x2="95.4999" y2="486" stroke="#787878" stroke-dasharray="16 24"/>
<line x1="190.5" y1="4.48725e-09" x2="190.5" y2="486" stroke="#787878" stroke-dasharray="16 24"/>
<line x1="285.5" y1="4.48725e-09" x2="285.5" y2="486" stroke="#787878" stroke-dasharray="16 24"/>
<line x1="380.5" y1="4.48725e-09" x2="380.5" y2="486" stroke="#787878" stroke-dasharray="16 24"/>
<line x1="475.5" y1="4.48725e-09" x2="475.5" y2="486" stroke="#787878" stroke-dasharray="16 24"/>
<line x1="570.5" y1="4.48725e-09" x2="570.5" y2="486" stroke="#787878" stroke-dasharray="16 24"/>
<line x1="665.5" y1="4.48725e-09" x2="665.5" y2="486" stroke="#787878" stroke-dasharray="16 24"/>
<line x1="760.5" y1="4.48725e-09" x2="760.5" y2="486" stroke="#787878" stroke-dasharray="16 24"/>
<line x1="855.5" y1="4.48725e-09" x2="855.5" y2="486" stroke="#787878" stroke-dasharray="16 24"/>
<line x1="950.5" y1="4.48725e-09" x2="950.5" y2="486" stroke="#787878" stroke-dasharray="16 24"/>
<line x1="1045.5" y1="4.48725e-09" x2="1045.5" y2="486" stroke="#787878" stroke-dasharray="16 24"/>
<line x1="1145.5" y1="4.48725e-09" x2="1145.5" y2="486" stroke="#787878" stroke-dasharray="16 24"/>
</svg>
