<svg width="198" height="60" viewBox="0 0 198 60" fill="none" xmlns="http://www.w3.org/2000/svg">
<path d="M121.792 14.8425C120.187 15.7083 118.458 16.2772 116.667 16.5493C118.5 15.2383 119.917 13.1603 120.583 10.6619C118.854 11.8987 116.937 12.7645 114.917 13.2593C113.271 11.1319 110.958 9.89502 108.333 9.89502C103.437 9.89502 99.4375 14.6446 99.4375 20.5073C99.4375 21.3484 99.5208 22.1647 99.6666 22.9315C92.25 22.4863 85.6459 18.2562 81.25 11.8493C80.4792 13.4077 80.0417 15.2383 80.0417 17.1678C80.0417 20.8536 81.6042 24.1189 84.0209 25.9742C82.5417 25.9742 81.1667 25.4795 79.9584 24.7374C79.9584 24.7374 79.9584 24.7374 79.9584 24.8116C79.9584 29.9569 83.0417 34.2612 87.125 35.226C86.375 35.4733 85.5834 35.597 84.7709 35.597C84.2084 35.597 83.6459 35.5228 83.1042 35.3991C84.2292 39.5797 87.5 42.6966 91.4375 42.7708C88.3959 45.6403 84.5417 47.3225 80.3334 47.3225C79.625 47.3225 78.9167 47.273 78.2084 47.174C82.1667 50.192 86.875 51.9483 91.9167 51.9483C108.333 51.9483 117.354 35.7702 117.354 21.7442C117.354 21.2741 117.354 20.8289 117.333 20.3589C119.083 18.8746 120.583 16.9946 121.792 14.8425Z" fill="#121212"/>
<path d="M191.75 51.9484H183.417V35.2508C183.417 32.6286 180.937 30.4518 178.729 30.4518C176.521 30.4518 175.083 32.6286 175.083 35.2508V51.9484H166.75V22.2637H175.083V27.2112C176.458 24.5643 180 22.8574 182.375 22.8574C187.583 22.8574 191.75 27.9038 191.75 34.0139V51.9484ZM162.583 51.9484H154.25V22.2637H162.583V51.9484ZM158.417 7.42139C159.522 7.42139 160.582 7.94262 161.363 8.87047C162.144 9.79829 162.583 11.0567 162.583 12.3688C162.583 13.681 162.144 14.9394 161.363 15.8672C160.582 16.795 159.522 17.3163 158.417 17.3163C157.312 17.3163 156.252 16.795 155.47 15.8672C154.689 14.9394 154.25 13.681 154.25 12.3688C154.25 11.0567 154.689 9.79829 155.47 8.87047C156.252 7.94262 157.312 7.42139 158.417 7.42139Z" fill="#121212"/>
<path d="M45.8333 29.8352C45.8333 16.0885 36.507 4.94727 25 4.94727C13.4928 4.94727 4.16663 16.0885 4.16663 29.8352C4.16663 42.2597 11.7838 52.5551 21.7448 54.4217V37.0292H16.455V29.8352H21.7448V24.3521C21.7448 18.1155 24.8535 14.6691 29.6141 14.6691C31.8929 14.6691 34.2773 15.1552 34.2773 15.1552V21.28H31.6487C29.0608 21.28 28.2552 23.2 28.2552 25.1687V29.8352H34.0331L33.1095 37.0292H28.2552V54.4217C38.216 52.5551 45.8333 42.2597 45.8333 29.8352Z" fill="#121212"/>
</svg>
